<svg width="26" height="24" viewBox="0 0 26 24" fill="none" xmlns="http://www.w3.org/2000/svg">
<path d="M25.0745 2.89473C17.6775 0.265136 9.63738 0.0479448 2.10923 2.27436C1.80999 2.34597 1.52826 2.47714 1.28083 2.66004C1.03341 2.84294 0.825387 3.07383 0.669173 3.33891C0.512959 3.60399 0.411761 3.89783 0.371622 4.20288C0.331483 4.50794 0.353226 4.81796 0.435552 5.11442C0.847582 6.76796 1.44859 8.66779 2.17042 10.3903C2.18281 10.4305 2.20217 10.4112 2.20217 10.3709C2.09761 9.56311 2.71876 8.5431 3.93703 8.17212C9.79178 6.30882 16.0926 6.39224 21.896 8.40989C22.11 8.4831 22.3366 8.51272 22.5623 8.49698C22.7879 8.48125 23.0082 8.42048 23.21 8.31827C23.4118 8.21606 23.5912 8.07447 23.7374 7.90185C23.8836 7.72924 23.9938 7.52909 24.0615 7.31321C24.7833 4.98973 25.0745 3.41209 25.1465 3.0171C25.1589 2.94352 25.0938 2.91564 25.0745 2.8955V2.89473ZM7.22785 8.00638C6.34106 8.19148 5.11504 8.48269 4.19494 8.78784C2.35552 9.42215 2.44071 11.6604 3.42045 12.3745C3.49247 11.9594 3.93703 11.3948 4.43271 11.2043C6.26903 10.4824 8.24089 10.051 10.2344 9.8729C9.2214 9.46165 8.23314 8.87226 7.24102 8.0056L7.22785 8.00638ZM21.8712 12.4876C19.2285 11.2459 16.3638 10.5466 13.4463 10.431C10.5287 10.3154 7.61762 10.7859 4.88501 11.8146C4.00906 12.1453 3.46072 13.211 4.00906 14.2225C4.96699 15.9543 6.0541 17.6115 7.26116 19.18C7.08767 18.579 7.39437 17.466 8.5716 17.102C11.8276 16.1014 15.2439 16.5258 17.5147 17.4451C18.1559 17.703 19.0636 17.5466 19.5725 16.7845C20.4403 15.4477 21.2295 14.0616 21.9362 12.6332C21.968 12.5689 21.9362 12.5209 21.8712 12.4876ZM16.5953 20.5113C15.6429 20.0304 14.7718 19.4029 14.014 18.6518C13.6631 18.3009 13.1465 17.7967 12.6021 17.1957C11.359 17.1957 10.1523 17.3204 8.86203 17.7325C7.66389 18.1073 7.55159 19.4913 8.07592 20.2132C8.96272 21.3184 9.58463 21.9147 10.5768 22.9401C11.1025 23.4559 11.8086 23.7464 12.5451 23.75C13.2815 23.7536 13.9904 23.47 14.5212 22.9595C15.2957 22.185 15.7721 21.6684 16.6472 20.6763C16.6991 20.6236 16.679 20.5315 16.5946 20.5113H16.5953Z" fill="black"/>
</svg>
